<svg width="75" height="75" viewBox="0 0 75 75" fill="none" xmlns="http://www.w3.org/2000/svg">
<rect width="75" height="75" rx="15" fill="url(#paint0_linear_2_711)"/>
<ellipse cx="37.5383" cy="36.9231" rx="11.5385" ry="11.5385" fill="white" fill-opacity="0.17"/>
<g filter="url(#filter0_d_2_711)">
<circle cx="40.7856" cy="42" r="7.85714" fill="url(#paint1_linear_2_711)"/>
</g>
<path d="M40.8475 21.6918C33.8381 21.6918 19.7977 16.0097 19.7977 9H19.6939C19.6939 14.6102 21.9225 19.9906 25.8894 23.9577C29.8564 27.9248 35.2367 30.1536 40.8469 30.1538C44.213 30.1538 47.4414 31.491 49.8217 33.8712C52.202 36.2514 53.5392 39.4798 53.5392 42.8459C53.54 46.212 52.2034 49.4408 49.8236 51.8214C47.4437 54.2023 44.2157 55.54 40.8496 55.5408C37.4832 55.5413 34.2546 54.2047 31.8739 51.8249C29.4931 49.4451 28.1553 46.217 28.1546 42.8509C28.1545 40.0729 27.6073 37.3221 26.5441 34.7557C25.481 32.1892 23.9227 29.8572 21.9583 27.8929C19.9939 25.9287 17.6619 24.3706 15.0953 23.3076C12.5288 22.2446 9.77797 21.6975 7 21.6976V21.8006C14.0083 21.8006 19.6905 35.835 19.6931 42.8456H19.6918C19.6918 47.0296 20.9323 51.1194 23.2567 54.5981C25.581 58.0769 28.8847 60.7883 32.75 62.3894C36.6154 63.9907 40.8686 64.4098 44.9722 63.5935C49.0755 62.7775 52.8448 60.7629 55.8035 57.8048C58.7618 54.8464 60.7767 51.0774 61.5933 46.9738C62.4098 42.8705 61.991 38.6172 60.3902 34.7517C58.7893 30.8863 56.0782 27.5823 52.5997 25.2577C49.121 22.9331 45.0312 21.6921 40.8475 21.6918Z" fill="url(#paint2_linear_2_711)"/>
<defs>
<filter id="filter0_d_2_711" x="28.9285" y="34.1429" width="23.7143" height="23.7143" filterUnits="userSpaceOnUse" color-interpolation-filters="sRGB">
<feFlood flood-opacity="0" result="BackgroundImageFix"/>
<feColorMatrix in="SourceAlpha" type="matrix" values="0 0 0 0 0 0 0 0 0 0 0 0 0 0 0 0 0 0 127 0" result="hardAlpha"/>
<feOffset dy="4"/>
<feGaussianBlur stdDeviation="2"/>
<feColorMatrix type="matrix" values="0 0 0 0 0 0 0 0 0 0 0 0 0 0 0 0 0 0 0.25 0"/>
<feBlend mode="normal" in2="BackgroundImageFix" result="effect1_dropShadow_2_711"/>
<feBlend mode="normal" in="SourceGraphic" in2="effect1_dropShadow_2_711" result="shape"/>
</filter>
<linearGradient id="paint0_linear_2_711" x1="37.5" y1="0" x2="37.5" y2="75" gradientUnits="userSpaceOnUse">
<stop stop-color="#21C8F6"/>
<stop offset="1" stop-color="#637BFF"/>
</linearGradient>
<linearGradient id="paint1_linear_2_711" x1="40.7856" y1="34.1429" x2="40.7856" y2="49.8571" gradientUnits="userSpaceOnUse">
<stop stop-color="#21C8F6" stop-opacity="0"/>
<stop offset="0.0001" stop-color="#FFC73C"/>
<stop offset="1" stop-color="#F19A1A"/>
</linearGradient>
<linearGradient id="paint2_linear_2_711" x1="50.835" y1="56.575" x2="18.88" y2="12.685" gradientUnits="userSpaceOnUse">
<stop offset="0.295" stop-color="#E73959"/>
<stop offset="0.384" stop-color="#E73D58"/>
<stop offset="0.477" stop-color="#E74955"/>
<stop offset="0.571" stop-color="#E95E51"/>
<stop offset="0.666" stop-color="#EA7B4B"/>
<stop offset="0.761" stop-color="#EDA044"/>
<stop offset="0.857" stop-color="#EFCE3B"/>
<stop offset="0.868" stop-color="#F0D43A"/>
</linearGradient>
</defs>
</svg>
