<svg width="26" height="26" viewBox="0 0 26 26" fill="none" xmlns="http://www.w3.org/2000/svg">
<path d="M18.4688 18.4688H7.31818L4.59391 3.48525C4.56118 3.30524 4.46631 3.14243 4.32584 3.02519C4.18538 2.90796 4.00822 2.84375 3.82526 2.84375H2.0625" stroke="black" stroke-width="2" stroke-linecap="round" stroke-linejoin="round"/>
<path d="M8.3125 22.375C9.39118 22.375 10.2656 21.5006 10.2656 20.4219C10.2656 19.3432 9.39118 18.4688 8.3125 18.4688C7.23382 18.4688 6.35938 19.3432 6.35938 20.4219C6.35938 21.5006 7.23382 22.375 8.3125 22.375Z" stroke="black" stroke-width="2" stroke-linecap="round" stroke-linejoin="round"/>
<path d="M18.4688 22.375C19.5474 22.375 20.4219 21.5006 20.4219 20.4219C20.4219 19.3432 19.5474 18.4688 18.4688 18.4688C17.3901 18.4688 16.5156 19.3432 16.5156 20.4219C16.5156 21.5006 17.3901 22.375 18.4688 22.375Z" stroke="black" stroke-width="2" stroke-linecap="round" stroke-linejoin="round"/>
<path d="M6.60795 14.5625H18.8693C19.2352 14.5625 19.5895 14.4341 19.8704 14.1996C20.1514 13.9652 20.3411 13.6395 20.4066 13.2795L21.5938 6.75H5.1875" stroke="black" stroke-width="2" stroke-linecap="round" stroke-linejoin="round"/>
</svg>
